<svg xmlns="http://www.w3.org/2000/svg" xmlns:xlink="http://www.w3.org/1999/xlink" width="500" zoomAndPan="magnify" viewBox="0 0 375 374.999991" height="500" preserveAspectRatio="xMidYMid meet" version="1.2"><defs><clipPath id="5a2d5c409b"><path d="M 6.644531 6 L 362 6 L 362 373 L 6.644531 373 Z M 6.644531 6 "/></clipPath><clipPath id="817025d33b"><path d="M 6.644531 12.089844 L 361.808594 12.089844 L 361.808594 367.253906 L 6.644531 367.253906 Z M 6.644531 12.089844 "/></clipPath><clipPath id="592de67f48"><path d="M 184.226562 12.089844 C 86.152344 12.089844 6.644531 91.597656 6.644531 189.671875 C 6.644531 287.75 86.152344 367.253906 184.226562 367.253906 C 282.300781 367.253906 361.808594 287.75 361.808594 189.671875 C 361.808594 91.597656 282.300781 12.089844 184.226562 12.089844 Z M 184.226562 12.089844 "/></clipPath><clipPath id="4b81010752"><path d="M 101.058594 106.523438 L 267.394531 106.523438 L 267.394531 272.859375 L 101.058594 272.859375 Z M 101.058594 106.523438 "/></clipPath><clipPath id="819158cc3d"><path d="M 184.226562 106.523438 C 138.292969 106.523438 101.058594 143.757812 101.058594 189.691406 C 101.058594 235.625 138.292969 272.859375 184.226562 272.859375 C 230.160156 272.859375 267.394531 235.625 267.394531 189.691406 C 267.394531 143.757812 230.160156 106.523438 184.226562 106.523438 Z M 184.226562 106.523438 "/></clipPath></defs><g id="2bd806c5fc"><rect x="0" width="375" y="0" height="374.999991" style="fill:#ffffff;fill-opacity:1;stroke:none;"/><rect x="0" width="375" y="0" height="374.999991" style="fill:#ffffff;fill-opacity:1;stroke:none;"/><g clip-rule="nonzero" clip-path="url(#5a2d5c409b)"><path style=" stroke:none;fill-rule:evenodd;fill:#cd853f;fill-opacity:1;" d="M 139.558594 12.082031 C 187.480469 0.03125 235.878906 8.113281 275.683594 31.09375 C 316.257812 54.519531 347.894531 93.421875 360.980469 142.253906 C 361.265625 143.332031 361.542969 144.410156 361.8125 145.488281 L 359.015625 146.464844 C 358.730469 145.316406 358.4375 144.164062 358.128906 143.015625 C 345.253906 94.972656 314.125 56.695312 274.207031 33.644531 C 234.5 10.71875 186.089844 2.867188 138.292969 15.453125 C 138.738281 14.339844 139.160156 13.214844 139.558594 12.082031 Z M 9.441406 233.425781 C 9.675781 234.367188 9.917969 235.304688 10.171875 236.246094 C 23.042969 284.292969 54.171875 322.570312 94.089844 345.617188 C 133.988281 368.65625 182.667969 376.472656 230.691406 363.628906 C 230.226562 364.746094 229.789062 365.878906 229.375 367.019531 C 181.246094 379.304688 132.589844 371.246094 92.613281 348.167969 C 52.042969 324.746094 20.402344 285.839844 7.320312 237.007812 C 7.089844 236.140625 6.863281 235.273438 6.644531 234.40625 Z M 9.441406 233.425781 "/></g><g clip-rule="nonzero" clip-path="url(#817025d33b)"><g clip-rule="nonzero" clip-path="url(#592de67f48)"><path style=" stroke:none;fill-rule:nonzero;fill:#d9d9d9;fill-opacity:1;" d="M 6.644531 12.089844 L 361.808594 12.089844 L 361.808594 367.253906 L 6.644531 367.253906 Z M 6.644531 12.089844 "/></g></g><g clip-rule="nonzero" clip-path="url(#4b81010752)"><g clip-rule="nonzero" clip-path="url(#819158cc3d)"><path style=" stroke:none;fill-rule:nonzero;fill:#cd853f;fill-opacity:1;" d="M 101.058594 106.523438 L 267.394531 106.523438 L 267.394531 272.859375 L 101.058594 272.859375 Z M 101.058594 106.523438 "/></g></g><g style="fill:#545454;fill-opacity:1;"><g transform="translate(10.992344, 212.377457)"><path style="stroke:none" d="M 48.40625 -47.125 L 30.234375 -47.125 L 30.234375 0 L 19.28125 0 L 19.28125 -47.125 L 1.125 -47.125 L 1.125 -56.796875 L 48.40625 -56.796875 Z M 48.40625 -47.125 "/></g></g><g style="fill:#545454;fill-opacity:1;"><g transform="translate(60.507539, 212.377457)"><path style="stroke:none" d="M 24.234375 0.796875 C 20.828125 0.796875 17.757812 0.222656 15.03125 -0.921875 C 12.3125 -2.066406 10.003906 -3.648438 8.109375 -5.671875 C 6.222656 -7.703125 4.769531 -10.023438 3.75 -12.640625 C 2.738281 -15.253906 2.234375 -18 2.234375 -20.875 C 2.234375 -23.8125 2.738281 -26.585938 3.75 -29.203125 C 4.769531 -31.816406 6.222656 -34.132812 8.109375 -36.15625 C 10.003906 -38.1875 12.3125 -39.773438 15.03125 -40.921875 C 17.757812 -42.066406 20.828125 -42.640625 24.234375 -42.640625 C 27.648438 -42.640625 30.703125 -42.066406 33.390625 -40.921875 C 36.085938 -39.773438 38.394531 -38.1875 40.3125 -36.15625 C 42.238281 -34.132812 43.691406 -31.816406 44.671875 -29.203125 C 45.660156 -26.585938 46.15625 -23.8125 46.15625 -20.875 C 46.15625 -18 45.660156 -15.253906 44.671875 -12.640625 C 43.691406 -10.023438 42.253906 -7.703125 40.359375 -5.671875 C 38.460938 -3.648438 36.15625 -2.066406 33.4375 -0.921875 C 30.71875 0.222656 27.648438 0.796875 24.234375 0.796875 Z M 13.28125 -20.875 C 13.28125 -18.425781 13.757812 -16.253906 14.71875 -14.359375 C 15.675781 -12.460938 16.984375 -10.976562 18.640625 -9.90625 C 20.296875 -8.84375 22.160156 -8.3125 24.234375 -8.3125 C 26.265625 -8.3125 28.101562 -8.859375 29.75 -9.953125 C 31.40625 -11.046875 32.726562 -12.539062 33.71875 -14.4375 C 34.707031 -16.332031 35.203125 -18.503906 35.203125 -20.953125 C 35.203125 -23.359375 34.707031 -25.519531 33.71875 -27.4375 C 32.726562 -29.351562 31.40625 -30.84375 29.75 -31.90625 C 28.101562 -32.976562 26.265625 -33.515625 24.234375 -33.515625 C 22.160156 -33.515625 20.296875 -32.96875 18.640625 -31.875 C 16.984375 -30.78125 15.675781 -29.285156 14.71875 -27.390625 C 13.757812 -25.503906 13.28125 -23.332031 13.28125 -20.875 Z M 13.28125 -20.875 "/></g></g><g style="fill:#545454;fill-opacity:1;"><g transform="translate(108.982832, 212.377457)"><path style="stroke:none" d="M 30 0.796875 C 26.75 0.796875 23.882812 0.0664062 21.40625 -1.390625 C 18.925781 -2.859375 16.988281 -4.847656 15.59375 -7.359375 L 15.59375 17.046875 L 4.875 17.046875 L 4.875 -41.921875 L 14.234375 -41.921875 L 14.234375 -34.71875 C 15.835938 -37.175781 17.863281 -39.109375 20.3125 -40.515625 C 22.769531 -41.929688 25.570312 -42.640625 28.71875 -42.640625 C 31.539062 -42.640625 34.140625 -42.078125 36.515625 -40.953125 C 38.890625 -39.835938 40.957031 -38.28125 42.71875 -36.28125 C 44.476562 -34.28125 45.847656 -31.984375 46.828125 -29.390625 C 47.816406 -26.804688 48.3125 -24.023438 48.3125 -21.046875 C 48.3125 -16.984375 47.523438 -13.300781 45.953125 -10 C 44.378906 -6.695312 42.21875 -4.070312 39.46875 -2.125 C 36.726562 -0.175781 33.570312 0.796875 30 0.796875 Z M 26.40625 -8.3125 C 28.050781 -8.3125 29.539062 -8.660156 30.875 -9.359375 C 32.207031 -10.054688 33.367188 -11.003906 34.359375 -12.203125 C 35.347656 -13.398438 36.09375 -14.757812 36.59375 -16.28125 C 37.101562 -17.800781 37.359375 -19.390625 37.359375 -21.046875 C 37.359375 -22.804688 37.078125 -24.429688 36.515625 -25.921875 C 35.960938 -27.410156 35.148438 -28.726562 34.078125 -29.875 C 33.015625 -31.019531 31.773438 -31.910156 30.359375 -32.546875 C 28.941406 -33.191406 27.410156 -33.515625 25.765625 -33.515625 C 24.742188 -33.515625 23.710938 -33.34375 22.671875 -33 C 21.640625 -32.65625 20.640625 -32.160156 19.671875 -31.515625 C 18.710938 -30.878906 17.875 -30.132812 17.15625 -29.28125 C 16.4375 -28.425781 15.914062 -27.492188 15.59375 -26.484375 L 15.59375 -16.640625 C 16.238281 -15.085938 17.109375 -13.671875 18.203125 -12.390625 C 19.296875 -11.117188 20.5625 -10.117188 22 -9.390625 C 23.4375 -8.671875 24.90625 -8.3125 26.40625 -8.3125 Z M 26.40625 -8.3125 "/></g></g><g style="fill:#ffffff;fill-opacity:1;"><g transform="translate(159.703276, 212.377457)"><path style="stroke:none" d="M 39.765625 -41.921875 C 39.390625 -42.296875 38.707031 -42.800781 37.71875 -43.4375 C 36.726562 -44.082031 35.523438 -44.695312 34.109375 -45.28125 C 32.703125 -45.863281 31.171875 -46.378906 29.515625 -46.828125 C 27.867188 -47.285156 26.191406 -47.515625 24.484375 -47.515625 C 21.492188 -47.515625 19.238281 -46.953125 17.71875 -45.828125 C 16.195312 -44.710938 15.4375 -43.144531 15.4375 -41.125 C 15.4375 -39.570312 15.914062 -38.34375 16.875 -37.4375 C 17.832031 -36.53125 19.269531 -35.753906 21.1875 -35.109375 C 23.113281 -34.472656 25.519531 -33.785156 28.40625 -33.046875 C 32.132812 -32.140625 35.367188 -31.03125 38.109375 -29.71875 C 40.859375 -28.414062 42.96875 -26.707031 44.4375 -24.59375 C 45.90625 -22.488281 46.640625 -19.703125 46.640625 -16.234375 C 46.640625 -13.203125 46.078125 -10.601562 44.953125 -8.4375 C 43.835938 -6.28125 42.289062 -4.535156 40.3125 -3.203125 C 38.34375 -1.867188 36.101562 -0.894531 33.59375 -0.28125 C 31.09375 0.332031 28.425781 0.640625 25.59375 0.640625 C 22.769531 0.640625 19.941406 0.347656 17.109375 -0.234375 C 14.285156 -0.828125 11.566406 -1.671875 8.953125 -2.765625 C 6.347656 -3.859375 3.953125 -5.175781 1.765625 -6.71875 L 6.640625 -16.234375 C 7.117188 -15.753906 7.972656 -15.128906 9.203125 -14.359375 C 10.429688 -13.585938 11.921875 -12.8125 13.671875 -12.03125 C 15.429688 -11.257812 17.351562 -10.609375 19.4375 -10.078125 C 21.519531 -9.546875 23.628906 -9.28125 25.765625 -9.28125 C 28.742188 -9.28125 31.003906 -9.785156 32.546875 -10.796875 C 34.097656 -11.804688 34.875 -13.25 34.875 -15.125 C 34.875 -16.832031 34.257812 -18.164062 33.03125 -19.125 C 31.8125 -20.082031 30.109375 -20.921875 27.921875 -21.640625 C 25.734375 -22.359375 23.144531 -23.144531 20.15625 -24 C 16.582031 -25.007812 13.59375 -26.140625 11.1875 -27.390625 C 8.789062 -28.648438 7.003906 -30.238281 5.828125 -32.15625 C 4.660156 -34.082031 4.078125 -36.484375 4.078125 -39.359375 C 4.078125 -43.253906 4.992188 -46.519531 6.828125 -49.15625 C 8.671875 -51.800781 11.164062 -53.800781 14.3125 -55.15625 C 17.46875 -56.519531 20.960938 -57.203125 24.796875 -57.203125 C 27.460938 -57.203125 29.984375 -56.90625 32.359375 -56.3125 C 34.734375 -55.726562 36.957031 -54.957031 39.03125 -54 C 41.113281 -53.039062 42.984375 -52 44.640625 -50.875 Z M 39.765625 -41.921875 "/></g></g><g style="fill:#545454;fill-opacity:1;"><g transform="translate(208.746237, 212.377457)"><path style="stroke:none" d="M 30 0.796875 C 26.75 0.796875 23.882812 0.0664062 21.40625 -1.390625 C 18.925781 -2.859375 16.988281 -4.847656 15.59375 -7.359375 L 15.59375 17.046875 L 4.875 17.046875 L 4.875 -41.921875 L 14.234375 -41.921875 L 14.234375 -34.71875 C 15.835938 -37.175781 17.863281 -39.109375 20.3125 -40.515625 C 22.769531 -41.929688 25.570312 -42.640625 28.71875 -42.640625 C 31.539062 -42.640625 34.140625 -42.078125 36.515625 -40.953125 C 38.890625 -39.835938 40.957031 -38.28125 42.71875 -36.28125 C 44.476562 -34.28125 45.847656 -31.984375 46.828125 -29.390625 C 47.816406 -26.804688 48.3125 -24.023438 48.3125 -21.046875 C 48.3125 -16.984375 47.523438 -13.300781 45.953125 -10 C 44.378906 -6.695312 42.21875 -4.070312 39.46875 -2.125 C 36.726562 -0.175781 33.570312 0.796875 30 0.796875 Z M 26.40625 -8.3125 C 28.050781 -8.3125 29.539062 -8.660156 30.875 -9.359375 C 32.207031 -10.054688 33.367188 -11.003906 34.359375 -12.203125 C 35.347656 -13.398438 36.09375 -14.757812 36.59375 -16.28125 C 37.101562 -17.800781 37.359375 -19.390625 37.359375 -21.046875 C 37.359375 -22.804688 37.078125 -24.429688 36.515625 -25.921875 C 35.960938 -27.410156 35.148438 -28.726562 34.078125 -29.875 C 33.015625 -31.019531 31.773438 -31.910156 30.359375 -32.546875 C 28.941406 -33.191406 27.410156 -33.515625 25.765625 -33.515625 C 24.742188 -33.515625 23.710938 -33.34375 22.671875 -33 C 21.640625 -32.65625 20.640625 -32.160156 19.671875 -31.515625 C 18.710938 -30.878906 17.875 -30.132812 17.15625 -29.28125 C 16.4375 -28.425781 15.914062 -27.492188 15.59375 -26.484375 L 15.59375 -16.640625 C 16.238281 -15.085938 17.109375 -13.671875 18.203125 -12.390625 C 19.296875 -11.117188 20.5625 -10.117188 22 -9.390625 C 23.4375 -8.671875 24.90625 -8.3125 26.40625 -8.3125 Z M 26.40625 -8.3125 "/></g></g><g style="fill:#545454;fill-opacity:1;"><g transform="translate(259.461311, 212.377457)"><path style="stroke:none" d="M 24.234375 0.796875 C 20.828125 0.796875 17.757812 0.222656 15.03125 -0.921875 C 12.3125 -2.066406 10.003906 -3.648438 8.109375 -5.671875 C 6.222656 -7.703125 4.769531 -10.023438 3.75 -12.640625 C 2.738281 -15.253906 2.234375 -18 2.234375 -20.875 C 2.234375 -23.8125 2.738281 -26.585938 3.75 -29.203125 C 4.769531 -31.816406 6.222656 -34.132812 8.109375 -36.15625 C 10.003906 -38.1875 12.3125 -39.773438 15.03125 -40.921875 C 17.757812 -42.066406 20.828125 -42.640625 24.234375 -42.640625 C 27.648438 -42.640625 30.703125 -42.066406 33.390625 -40.921875 C 36.085938 -39.773438 38.394531 -38.1875 40.3125 -36.15625 C 42.238281 -34.132812 43.691406 -31.816406 44.671875 -29.203125 C 45.660156 -26.585938 46.15625 -23.8125 46.15625 -20.875 C 46.15625 -18 45.660156 -15.253906 44.671875 -12.640625 C 43.691406 -10.023438 42.253906 -7.703125 40.359375 -5.671875 C 38.460938 -3.648438 36.15625 -2.066406 33.4375 -0.921875 C 30.71875 0.222656 27.648438 0.796875 24.234375 0.796875 Z M 13.28125 -20.875 C 13.28125 -18.425781 13.757812 -16.253906 14.71875 -14.359375 C 15.675781 -12.460938 16.984375 -10.976562 18.640625 -9.90625 C 20.296875 -8.84375 22.160156 -8.3125 24.234375 -8.3125 C 26.265625 -8.3125 28.101562 -8.859375 29.75 -9.953125 C 31.40625 -11.046875 32.726562 -12.539062 33.71875 -14.4375 C 34.707031 -16.332031 35.203125 -18.503906 35.203125 -20.953125 C 35.203125 -23.359375 34.707031 -25.519531 33.71875 -27.4375 C 32.726562 -29.351562 31.40625 -30.84375 29.75 -31.90625 C 28.101562 -32.976562 26.265625 -33.515625 24.234375 -33.515625 C 22.160156 -33.515625 20.296875 -32.96875 18.640625 -31.875 C 16.984375 -30.78125 15.675781 -29.285156 14.71875 -27.390625 C 13.757812 -25.503906 13.28125 -23.332031 13.28125 -20.875 Z M 13.28125 -20.875 "/></g></g><g style="fill:#545454;fill-opacity:1;"><g transform="translate(307.936603, 212.377457)"><path style="stroke:none" d="M 48.40625 -47.125 L 30.234375 -47.125 L 30.234375 0 L 19.28125 0 L 19.28125 -47.125 L 1.125 -47.125 L 1.125 -56.796875 L 48.40625 -56.796875 Z M 48.40625 -47.125 "/></g></g></g></svg>